<?xml version="1.0" encoding="utf-8"?>
<!-- Generator: Adobe Illustrator 21.0.0, SVG Export Plug-In . SVG Version: 6.00 Build 0)  -->
<svg version="1.1" id="Layer_1" xmlns="http://www.w3.org/2000/svg" xmlns:xlink="http://www.w3.org/1999/xlink" x="0px" y="0px"
	 viewBox="0 0 128 128" style="enable-background:new 0 0 128 128;" xml:space="preserve">
<style type="text/css">
	.st0{fill:#CFF1FB;}
	.st1{fill:#91DEF5;}
	.st2{fill:#F6F7F7;}
	.st3{fill:#FFCFB8;}
	.st4{fill:#FFA77B;}
	.st5{fill:#E9EAEB;}
	.st6{fill:#746887;}
	.st7{fill:#F98770;}
	.st8{fill:#9B9B9B;}
	.st9{fill:#FFDDCF;}
	.st10{fill:#FFFFFF;}
	.st11{fill:#B7B7B7;}
	.st12{fill:#FFBC99;}
	.st13{fill:#DBDCDE;}
	.st14{fill:#FECFBA;}
	.st15{fill:#D0F1FA;}
	.st16{fill:#FDA77F;}
	.st17{fill:#94DEF4;}
</style>
<g>
</g>
<g>
	<g>
		<path class="st14" d="M102.943,86.035h8.507c-1.632,6.418-4.442,12.523-8.312,17.948c-6.265,8.781-15.221,15.596-25.359,19.296
			c-10.597,3.868-22.379,4.249-33.224,1.135c-10.575-3.036-20.06-9.357-26.959-17.941C10.848,98.077,6.655,87.674,5.885,76.914
			c-0.096-1.366-0.156-2.735-0.156-4.105c0-9.919,2.689-19.207,7.383-27.183c1.231,0.812,2.707,1.284,4.293,1.284h2.153
			c2.125,20.14,19.165,35.832,39.866,35.832s37.737-15.692,39.866-35.832h2.054c1.618,0,3.118-0.49,4.36-1.327
			c4.711,7.982,7.411,17.288,7.411,27.225h-7.66l-5.336-4.385v14.787C100.119,84.772,101.382,86.035,102.943,86.035z"/>
	</g>
	<g>
		<path class="st7" d="M59.406,128c-5.149,0-10.302-0.722-15.264-2.144c-10.756-3.083-20.598-9.632-27.713-18.44
			C9.449,98.774,5.173,87.98,4.389,77.021c-0.059-0.827,0.563-1.545,1.389-1.604c0.825-0.081,1.543,0.563,1.603,1.389
			c0.741,10.354,4.824,20.522,11.382,28.725c6.703,8.384,16.027,14.49,26.205,17.44c10.406,3.017,22.02,2.636,32.298-1.104
			c9.807-3.568,18.563-10.226,24.651-18.757c3.383-4.741,5.924-9.973,7.568-15.576h-6.542c-2.384,0-4.324-1.939-4.324-4.324V68.424
			c0-0.58,0.334-1.108,0.859-1.356c0.525-0.249,1.146-0.17,1.593,0.197l4.921,4.044h5.601c-0.238-8.319-2.456-16.454-6.46-23.699
			c-1.184,0.527-2.47,0.802-3.79,0.802h-0.726c-2.916,20.443-20.364,35.838-41.194,35.831C38.59,84.236,21.109,68.879,18.229,48.411
			h-0.825c-1.29,0-2.55-0.264-3.714-0.771c-3.727,6.763-5.925,14.372-6.373,22.101c-0.048,0.827-0.745,1.475-1.584,1.41
			c-0.827-0.048-1.458-0.757-1.411-1.584c0.503-8.683,3.096-17.225,7.497-24.702c0.208-0.354,0.553-0.607,0.954-0.7
			c0.401-0.094,0.822-0.017,1.165,0.209c1.028,0.679,2.227,1.037,3.466,1.037h2.154c0.768,0,1.409,0.579,1.492,1.343
			c2.112,19.607,18.615,34.457,38.374,34.488c19.762,0.032,36.215-14.895,38.374-34.488c0.084-0.763,0.724-1.343,1.492-1.343h2.054
			c1.265,0,2.482-0.37,3.522-1.071c0.343-0.23,0.767-0.313,1.169-0.219c0.403,0.091,0.751,0.345,0.961,0.7
			c4.984,8.446,7.619,18.124,7.619,27.987c0,0.828-0.671,1.5-1.5,1.5h-7.66c-0.347,0-0.684-0.12-0.952-0.341l-2.884-2.37v11.613
			c0,0.73,0.594,1.324,1.324,1.324h8.507c0.463,0,0.9,0.214,1.184,0.579s0.384,0.842,0.27,1.29
			c-1.697,6.674-4.576,12.879-8.544,18.449c-6.429,9.026-15.673,16.079-26.068,19.835C72.254,126.87,65.835,128,59.406,128z"/>
	</g>
	<g>
		<path class="st15" d="M102.44,104.941c-6.796,9.059-16.391,15.905-27.484,19.278c-4.914,1.494-10.132,2.281-15.532,2.281
			c-5.403,0-10.618-0.798-15.535-2.281c-11.108-3.353-20.697-10.207-27.484-19.278c0.294-0.337,0.6-0.667,0.915-0.983
			c3.392-3.392,8.078-5.488,13.254-5.488H88.27C93.929,98.47,99.005,100.978,102.44,104.941z"/>
	</g>
	<g>
		<circle class="st15" cx="59.422" cy="42.653" r="40.089"/>
	</g>
	<g>
		<path class="st15" d="M99.512,42.653c0,7.376-1.99,14.287-5.467,20.222C87.088,74.76,74.188,82.743,59.423,82.743
			S31.758,74.76,24.801,62.875c-3.477-5.935-5.467-12.846-5.467-20.222c0-22.141,17.948-40.089,40.089-40.089
			C81.564,2.564,99.512,20.512,99.512,42.653z"/>
	</g>
	<g>
		<circle class="st15" cx="59.422" cy="42.653" r="40.089"/>
	</g>
	<g>
		<g>
			<circle class="st16" cx="41.425" cy="39.46" r="11.477"/>
		</g>
		<g>
			<circle class="st16" cx="77.419" cy="39.46" r="11.477"/>
		</g>
	</g>
	<g>
		<g>
			<path class="st6" d="M41.425,52.438c-7.156,0-12.977-5.821-12.977-12.977c0-7.156,5.821-12.978,12.977-12.978
				s12.977,5.821,12.977,12.978C54.402,46.616,48.581,52.438,41.425,52.438z M41.425,29.483c-5.501,0-9.977,4.476-9.977,9.978
				c0,5.501,4.476,9.977,9.977,9.977s9.977-4.476,9.977-9.977C51.402,33.959,46.927,29.483,41.425,29.483z"/>
		</g>
		<g>
			<path class="st6" d="M74.295,52.007c-0.135,0-0.272-0.018-0.409-0.057c-5.561-1.57-9.444-6.706-9.444-12.489
				c0-7.156,5.821-12.978,12.977-12.978c7.156,0,12.977,5.821,12.977,12.978c0,5.751-3.856,10.879-9.377,12.471
				c-0.798,0.229-1.628-0.229-1.857-1.025c-0.229-0.797,0.23-1.628,1.026-1.857c4.244-1.224,7.209-5.166,7.209-9.588
				c0-5.502-4.476-9.978-9.977-9.978c-5.501,0-9.977,4.476-9.977,9.978c0,4.446,2.985,8.396,7.259,9.603
				c0.797,0.225,1.261,1.054,1.036,1.851C75.551,51.575,74.949,52.007,74.295,52.007z"/>
		</g>
	</g>
	<g>
		<path class="st16" d="M94.045,62.875C87.088,74.76,74.188,82.743,59.423,82.743S31.758,74.76,24.801,62.875H94.045z"/>
	</g>
	<g>
		<path class="st6" d="M109.147,40.961c-0.829,0-1.5-0.672-1.5-1.5V8.24c0-0.828,0.671-1.5,1.5-1.5s1.5,0.672,1.5,1.5v31.221
			C110.647,40.289,109.976,40.961,109.147,40.961z"/>
	</g>
	<g>
		<circle class="st16" cx="109.148" cy="4.87" r="3.37"/>
	</g>
	<g>
		<path class="st6" d="M9.599,40.961c-0.829,0-1.5-0.672-1.5-1.5V8.24c0-0.828,0.671-1.5,1.5-1.5s1.5,0.672,1.5,1.5v31.221
			C11.099,40.289,10.427,40.961,9.599,40.961z"/>
	</g>
	<g>
		<circle class="st16" cx="9.599" cy="4.87" r="3.37"/>
	</g>
	<g>
		<path class="st6" d="M109.147,9.74c-2.686,0-4.87-2.185-4.87-4.87S106.462,0,109.147,0s4.871,2.185,4.871,4.87
			S111.833,9.74,109.147,9.74z M109.147,3c-1.031,0-1.87,0.839-1.87,1.87s0.839,1.87,1.87,1.87s1.871-0.839,1.871-1.87
			S110.179,3,109.147,3z"/>
	</g>
	<g>
		<path class="st6" d="M9.599,9.74c-2.686,0-4.87-2.185-4.87-4.87S6.913,0,9.599,0s4.871,2.185,4.871,4.87S12.284,9.74,9.599,9.74z
			 M9.599,3c-1.031,0-1.87,0.839-1.87,1.87s0.839,1.87,1.87,1.87s1.871-0.839,1.871-1.87S10.63,3,9.599,3z"/>
	</g>
	<g>
		<path class="st6" d="M44.55,74.309c-0.829,0-1.5-0.672-1.5-1.5v-9.934c0-0.828,0.671-1.5,1.5-1.5s1.5,0.672,1.5,1.5v9.934
			C46.05,73.637,45.378,74.309,44.55,74.309z"/>
	</g>
	<g>
		<path class="st6" d="M59.422,74.309c-0.829,0-1.5-0.672-1.5-1.5v-9.934c0-0.828,0.671-1.5,1.5-1.5s1.5,0.672,1.5,1.5v9.934
			C60.922,73.637,60.251,74.309,59.422,74.309z"/>
	</g>
	<g>
		<path class="st6" d="M74.294,74.309c-0.829,0-1.5-0.672-1.5-1.5v-9.934c0-0.828,0.671-1.5,1.5-1.5s1.5,0.672,1.5,1.5v9.934
			C75.794,73.637,75.123,74.309,74.294,74.309z"/>
	</g>
	<g>
		<path class="st17" d="M74.997,79.605V98.47H43.848V79.603c0.291,0.124,0.582,0.241,0.876,0.358
			c0.302,0.121,0.603,0.235,0.912,0.348c7.386,2.703,15.448,3.183,23.106,1.344C70.877,81.14,72.972,80.46,74.997,79.605z"/>
	</g>
	<g>
		<path class="st6" d="M74.997,99.97H43.849c-0.829,0-1.5-0.672-1.5-1.5V79.603c0-0.504,0.253-0.974,0.673-1.252
			c0.421-0.277,0.952-0.324,1.416-0.128c0.279,0.119,0.559,0.232,0.842,0.345c0.291,0.116,0.576,0.225,0.87,0.332
			c7.161,2.603,14.85,3.04,22.243,1.295c2.089-0.493,4.113-1.165,6.021-1.972c0.462-0.196,0.993-0.147,1.413,0.132
			c0.419,0.277,0.671,0.747,0.671,1.25V98.47C76.497,99.298,75.826,99.97,74.997,99.97z M45.349,96.97h28.148V81.799
			c-1.427,0.512-2.9,0.956-4.404,1.312c-7.874,1.865-16.082,1.42-23.745-1.312V96.97z"/>
	</g>
	<g>
		<path class="st17" d="M19.539,46.751c0.007,0.053,0.011,0.106,0.018,0.16h-2.153c-4.311,0-7.805-3.494-7.805-7.805v0
			c0-4.311,3.494-7.805,7.805-7.805h3.559c-1.063,3.601-1.627,7.411-1.629,11.353C19.333,44.022,19.41,45.389,19.539,46.751z"/>
	</g>
	<g>
		<path class="st17" d="M109.148,39.106L109.148,39.106c0,4.311-3.494,7.805-7.805,7.805c-0.685,0-1.369,0-2.054,0
			c0.158-1.401,0.218-2.845,0.224-4.257c0.017-3.941-0.568-7.752-1.635-11.353h3.466C105.653,31.301,109.148,34.795,109.148,39.106z
			"/>
	</g>
	<g>
		<path class="st6" d="M19.557,48.411h-2.153c-5.131,0-9.305-4.175-9.305-9.306s4.174-9.305,9.305-9.305h3.56
			c0.473,0,0.918,0.223,1.202,0.602s0.371,0.869,0.237,1.323c-1.038,3.519-1.566,7.195-1.568,10.929
			c0,1.242,0.064,2.533,0.199,3.947c0.003,0.031,0.008,0.07,0.008,0.079c0.043,0.422-0.091,0.882-0.375,1.196
			C20.381,48.191,19.981,48.411,19.557,48.411z M17.404,32.801c-3.477,0-6.305,2.828-6.305,6.305s2.829,6.306,6.305,6.306h0.523
			c-0.063-0.955-0.094-1.867-0.093-2.759c0.002-3.345,0.396-6.65,1.174-9.852H17.404z"/>
	</g>
	<g>
		<path class="st6" d="M101.343,48.411h-2.054c-0.427,0-0.834-0.182-1.118-0.5c-0.285-0.318-0.42-0.743-0.373-1.168
			c0.137-1.22,0.208-2.56,0.214-4.097c0.016-3.672-0.514-7.346-1.574-10.919c-0.135-0.454-0.047-0.944,0.236-1.324
			c0.283-0.379,0.729-0.603,1.202-0.603h3.466c5.131,0,9.305,4.174,9.305,9.305S106.474,48.411,101.343,48.411z M100.924,45.411
			h0.418c3.477,0,6.305-2.829,6.305-6.306s-2.828-6.305-6.305-6.305h-1.507c0.795,3.243,1.19,6.551,1.176,9.858
			C101.008,43.643,100.979,44.554,100.924,45.411z"/>
	</g>
	<g>
		<path class="st14" d="M74.955,124.219c-4.917,1.483-10.132,2.281-15.532,2.281c-5.403,0-10.618-0.798-15.535-2.281
			c1.096-7.599,7.635-13.435,15.532-13.435C67.321,110.784,73.859,116.62,74.955,124.219z"/>
	</g>
	<g>
		<path class="st6" d="M59.423,128c-5.438,0-10.81-0.789-15.968-2.345c-0.71-0.215-1.158-0.916-1.052-1.65
			c1.211-8.393,8.526-14.722,17.017-14.722c8.492,0,15.81,6.329,17.021,14.722c0.106,0.734-0.341,1.436-1.052,1.65
			C70.23,127.211,64.858,128,59.423,128z M45.618,123.155c7.604,2.201,18.638,2.632,27.607,0
			c-1.513-6.281-7.233-10.872-13.806-10.872C52.849,112.283,47.13,116.874,45.618,123.155z"/>
	</g>
	<g>
		<path class="st7" d="M33.593,121.377c-0.829,0-1.5-0.672-1.5-1.5V98.47c0-0.828,0.671-1.5,1.5-1.5s1.5,0.672,1.5,1.5v21.407
			C35.093,120.705,34.421,121.377,33.593,121.377z"/>
	</g>
	<g>
		<path class="st7" d="M85.257,121.386c-0.829,0-1.5-0.672-1.5-1.5V98.47c0-0.828,0.671-1.5,1.5-1.5s1.5,0.672,1.5,1.5v21.416
			C86.757,120.714,86.086,121.386,85.257,121.386z"/>
	</g>
	<g>
		<path class="st17" d="M105.455,72.809l-5.336-4.384v4.384v10.402c0,1.56,1.265,2.825,2.825,2.825h16.502
			c1.56,0,2.825-1.265,2.825-2.825v-7.577c0-1.56-1.265-2.825-2.825-2.825H105.455z"/>
	</g>
	<g>
		<path class="st6" d="M119.446,87.536h-16.501c-2.385,0-4.325-1.94-4.325-4.325V68.425c0-0.58,0.334-1.108,0.859-1.356
			s1.146-0.171,1.593,0.197l4.92,4.043h13.454c2.385,0,4.325,1.94,4.325,4.325c0,0.828-0.671,1.5-1.5,1.5s-1.5-0.672-1.5-1.5
			c0-0.73-0.595-1.325-1.325-1.325h-13.991c-0.347,0-0.684-0.12-0.952-0.341l-2.883-2.369v11.612c0,0.73,0.594,1.325,1.325,1.325
			h16.501c0.73,0,1.325-0.595,1.325-1.325c0-0.828,0.671-1.5,1.5-1.5s1.5,0.672,1.5,1.5
			C123.771,85.596,121.831,87.536,119.446,87.536z"/>
	</g>
	<g>
		<path class="st6" d="M59.423,128c-17.533-0.056-33.645-8.144-44.221-22.161c-0.426-0.565-0.394-1.353,0.072-1.886
			c0.317-0.362,0.645-0.717,0.985-1.057c3.822-3.821,8.906-5.927,14.314-5.927H88.27c5.877,0,11.455,2.547,15.303,6.988
			c0.462,0.533,0.492,1.318,0.067,1.881C93.071,119.842,76.977,127.98,59.423,128z M18.365,105.034
			c9.982,12.63,24.893,19.894,41.057,19.953c16.174,0.06,31.05-7.332,41.057-19.954c-3.225-3.232-7.609-5.063-12.208-5.063H30.574
			c-4.607,0-8.938,1.793-12.194,5.049C18.375,105.023,18.37,105.028,18.365,105.034z"/>
	</g>
	<g>
		<path class="st6" d="M59.422,84.242c-22.933,0-41.589-18.656-41.589-41.589c0-9.977,3.586-19.624,10.098-27.166
			c0.541-0.628,1.488-0.696,2.116-0.155c0.627,0.542,0.696,1.489,0.155,2.116c-6.041,6.997-9.368,15.948-9.368,25.205
			c0,21.278,17.311,38.589,38.589,38.589c21.278,0,38.589-17.311,38.589-38.589S80.7,4.064,59.422,4.064
			c-8.806,0-17.097,2.888-23.977,8.351c-0.649,0.515-1.592,0.406-2.107-0.242s-0.407-1.592,0.242-2.107
			c7.416-5.889,16.352-9.001,25.842-9.001c22.932,0,41.589,18.656,41.589,41.589S82.354,84.242,59.422,84.242z"/>
	</g>
</g>
</svg>
